<svg width="35" height="35" viewBox="0 0 35 35" fill="none" xmlns="http://www.w3.org/2000/svg">
<path d="M0 8C0 3.58172 3.58172 0 8 0H27C31.4183 0 35 3.58172 35 8V27C35 31.4183 31.4183 35 27 35H8C3.58172 35 0 31.4183 0 27V8Z" fill="#92392B"/>
<path fill-rule="evenodd" clip-rule="evenodd" d="M30 10.6348V26.13L23.9562 18.5729L22.8078 19.4923L28.9104 27.1244H6.08964L12.1922 19.4923L11.0438 18.5729L5 26.13V10.6347L17.4993 21.4783L30 10.6348ZM29.9991 8V8.68553L17.4999 19.5291L5.00059 8.68554V8H29.9991Z" fill="white"/>
</svg>
