<svg width="35" height="35" viewBox="0 0 35 35" fill="none" xmlns="http://www.w3.org/2000/svg">
<path d="M0 8C0 3.58172 3.58172 0 8 0H27C31.4183 0 35 3.58172 35 8V27C35 31.4183 31.4183 35 27 35H8C3.58172 35 0 31.4183 0 27V8Z" fill="#92392B"/>
<path d="M5.00112 11.2414C5.00112 12.2879 5.38491 13.4382 5.87246 14.6588C6.36001 15.8794 6.98813 17.0297 7.47679 17.9011C8.80221 20.2028 10.5103 22.4689 12.4627 24.3511C14.4152 26.2333 16.7168 27.8031 19.2962 28.7448C20.7957 29.3373 22.2952 30 23.9687 30C24.8054 30 25.9914 29.6865 27.0714 29.2324C28.1179 28.7794 29.0584 28.0821 29.4076 27.2453C29.547 26.9318 29.7211 26.5134 29.826 26.0247C29.9308 25.5717 30 25.1176 30 24.8041C30 24.63 30 24.4549 29.9654 24.4203C29.8605 24.2105 29.6162 24.0365 29.3373 23.8624C28.7092 23.5489 28.6054 23.444 27.6638 22.8862C26.6876 22.3283 25.6768 21.7001 24.8043 21.2472C24.3859 21.0028 24.107 20.8979 24.0021 20.8979C23.4443 20.8979 22.747 21.6656 22.1546 22.5023C21.5265 23.3391 20.8292 24.1068 20.3416 24.1068C20.0973 24.1068 19.853 24.0019 19.574 23.8278C19.2951 23.6538 19.0162 23.5143 18.8422 23.4094C15.7741 21.6656 13.7168 19.6093 11.9741 16.5756C11.7643 16.2264 11.2768 15.4945 11.2768 15.1107C11.2768 14.6577 11.9049 14.1344 12.5319 13.5766C13.1243 13.0533 13.7525 12.4263 13.7525 11.6586C13.7525 11.5538 13.6822 11.2402 13.5427 10.7873C13.2292 9.88017 12.8108 8.83474 12.4616 7.82389C12.2876 7.33521 12.1481 6.9871 12.1124 6.81305C12.0421 6.70817 12.0075 6.56871 11.973 6.39465C11.9384 6.2206 11.8681 6.08114 11.8335 5.94167C11.7286 5.62815 11.5546 5.38381 11.3805 5.24434C11.2065 5.17405 10.7881 5.07029 10.3697 5.03459C9.95136 5.03459 9.46269 5 9.25406 5C9.14919 5 9.00973 5 8.87027 5.03459H8.41731C7.30163 5.52327 6.49946 6.49953 5.90704 7.64984C5.34921 8.80015 5 10.091 5 11.2414H5.00112Z" fill="white"/>
</svg>
